<mxfile host="app.diagrams.net" agent="Mozilla/5.0 (Windows NT 10.0; Win64; x64) AppleWebKit/537.36 (KHTML, like Gecko) Chrome/133.0.0.0 Safari/537.36" version="26.0.16">
  <diagram name="第 1 页" id="JqjY_3OXJ0ycC8vNH0t1">
    <mxGraphModel dx="1689" dy="422" grid="0" gridSize="10" guides="1" tooltips="1" connect="1" arrows="1" fold="1" page="1" pageScale="1" pageWidth="827" pageHeight="1169" math="0" shadow="0">
      <root>
        <mxCell id="0" />
        <mxCell id="1" parent="0" />
        <mxCell id="wTCuduvqksmkqUVvXFoO-15" style="rounded=0;orthogonalLoop=1;jettySize=auto;html=1;exitX=1;exitY=0;exitDx=0;exitDy=0;entryX=0;entryY=1;entryDx=0;entryDy=0;strokeColor=#FF6666;strokeWidth=2;" edge="1" parent="1" source="wTCuduvqksmkqUVvXFoO-1" target="wTCuduvqksmkqUVvXFoO-2">
          <mxGeometry relative="1" as="geometry" />
        </mxCell>
        <mxCell id="wTCuduvqksmkqUVvXFoO-28" value="1" style="edgeLabel;html=1;align=center;verticalAlign=middle;resizable=0;points=[];fontFamily=Helvetica;fontSize=11;fontColor=default;labelBackgroundColor=default;" vertex="1" connectable="0" parent="wTCuduvqksmkqUVvXFoO-15">
          <mxGeometry x="-0.2427" y="3" relative="1" as="geometry">
            <mxPoint as="offset" />
          </mxGeometry>
        </mxCell>
        <mxCell id="wTCuduvqksmkqUVvXFoO-1" value="" style="ellipse;whiteSpace=wrap;html=1;aspect=fixed;fillColor=#000033;" vertex="1" parent="1">
          <mxGeometry x="28" y="301" width="23" height="23" as="geometry" />
        </mxCell>
        <mxCell id="wTCuduvqksmkqUVvXFoO-16" style="rounded=0;orthogonalLoop=1;jettySize=auto;html=1;exitX=1;exitY=1;exitDx=0;exitDy=0;entryX=0;entryY=0;entryDx=0;entryDy=0;strokeColor=#FF6666;strokeWidth=2;align=center;verticalAlign=middle;fontFamily=Helvetica;fontSize=11;fontColor=default;labelBackgroundColor=default;endArrow=classic;" edge="1" parent="1" source="wTCuduvqksmkqUVvXFoO-2" target="wTCuduvqksmkqUVvXFoO-3">
          <mxGeometry relative="1" as="geometry" />
        </mxCell>
        <mxCell id="wTCuduvqksmkqUVvXFoO-29" value="2" style="edgeLabel;html=1;align=center;verticalAlign=middle;resizable=0;points=[];fontFamily=Helvetica;fontSize=11;fontColor=default;labelBackgroundColor=default;" vertex="1" connectable="0" parent="wTCuduvqksmkqUVvXFoO-16">
          <mxGeometry x="-0.2982" y="1" relative="1" as="geometry">
            <mxPoint as="offset" />
          </mxGeometry>
        </mxCell>
        <mxCell id="wTCuduvqksmkqUVvXFoO-18" style="edgeStyle=none;shape=connector;rounded=0;orthogonalLoop=1;jettySize=auto;html=1;exitX=0;exitY=0;exitDx=0;exitDy=0;entryX=0.5;entryY=1;entryDx=0;entryDy=0;strokeColor=#FF6666;strokeWidth=2;align=center;verticalAlign=middle;fontFamily=Helvetica;fontSize=11;fontColor=default;labelBackgroundColor=default;endArrow=classic;" edge="1" parent="1" source="wTCuduvqksmkqUVvXFoO-2" target="wTCuduvqksmkqUVvXFoO-4">
          <mxGeometry relative="1" as="geometry" />
        </mxCell>
        <mxCell id="wTCuduvqksmkqUVvXFoO-30" value="2" style="edgeLabel;html=1;align=center;verticalAlign=middle;resizable=0;points=[];fontFamily=Helvetica;fontSize=11;fontColor=default;labelBackgroundColor=default;" vertex="1" connectable="0" parent="wTCuduvqksmkqUVvXFoO-18">
          <mxGeometry x="0.0812" y="2" relative="1" as="geometry">
            <mxPoint as="offset" />
          </mxGeometry>
        </mxCell>
        <mxCell id="wTCuduvqksmkqUVvXFoO-21" style="edgeStyle=none;shape=connector;rounded=0;orthogonalLoop=1;jettySize=auto;html=1;exitX=1;exitY=0;exitDx=0;exitDy=0;entryX=0;entryY=1;entryDx=0;entryDy=0;strokeColor=#FF6666;strokeWidth=2;align=center;verticalAlign=middle;fontFamily=Helvetica;fontSize=11;fontColor=default;labelBackgroundColor=default;endArrow=classic;" edge="1" parent="1" source="wTCuduvqksmkqUVvXFoO-2" target="wTCuduvqksmkqUVvXFoO-7">
          <mxGeometry relative="1" as="geometry" />
        </mxCell>
        <mxCell id="wTCuduvqksmkqUVvXFoO-31" value="2" style="edgeLabel;html=1;align=center;verticalAlign=middle;resizable=0;points=[];fontFamily=Helvetica;fontSize=11;fontColor=default;labelBackgroundColor=default;" vertex="1" connectable="0" parent="wTCuduvqksmkqUVvXFoO-21">
          <mxGeometry x="-0.1512" y="2" relative="1" as="geometry">
            <mxPoint as="offset" />
          </mxGeometry>
        </mxCell>
        <mxCell id="wTCuduvqksmkqUVvXFoO-2" value="" style="ellipse;whiteSpace=wrap;html=1;aspect=fixed;fillColor=#E6E6E6;fontColor=#333333;strokeColor=#666666;" vertex="1" parent="1">
          <mxGeometry x="74" y="260" width="23" height="23" as="geometry" />
        </mxCell>
        <mxCell id="wTCuduvqksmkqUVvXFoO-3" value="" style="ellipse;whiteSpace=wrap;html=1;aspect=fixed;fillColor=#E6E6E6;fontColor=#333333;strokeColor=#666666;" vertex="1" parent="1">
          <mxGeometry x="106" y="303" width="23" height="23" as="geometry" />
        </mxCell>
        <mxCell id="wTCuduvqksmkqUVvXFoO-19" style="edgeStyle=none;shape=connector;rounded=0;orthogonalLoop=1;jettySize=auto;html=1;exitX=0;exitY=1;exitDx=0;exitDy=0;entryX=1;entryY=0;entryDx=0;entryDy=0;strokeColor=#FF6666;strokeWidth=2;align=center;verticalAlign=middle;fontFamily=Helvetica;fontSize=11;fontColor=default;labelBackgroundColor=default;endArrow=classic;" edge="1" parent="1" source="wTCuduvqksmkqUVvXFoO-4" target="wTCuduvqksmkqUVvXFoO-5">
          <mxGeometry relative="1" as="geometry" />
        </mxCell>
        <mxCell id="wTCuduvqksmkqUVvXFoO-32" value="3" style="edgeLabel;html=1;align=center;verticalAlign=middle;resizable=0;points=[];fontFamily=Helvetica;fontSize=11;fontColor=default;labelBackgroundColor=default;" vertex="1" connectable="0" parent="wTCuduvqksmkqUVvXFoO-19">
          <mxGeometry x="-0.0711" y="3" relative="1" as="geometry">
            <mxPoint as="offset" />
          </mxGeometry>
        </mxCell>
        <mxCell id="wTCuduvqksmkqUVvXFoO-20" style="edgeStyle=none;shape=connector;rounded=0;orthogonalLoop=1;jettySize=auto;html=1;exitX=0;exitY=0;exitDx=0;exitDy=0;entryX=1;entryY=1;entryDx=0;entryDy=0;strokeColor=#FF6666;strokeWidth=2;align=center;verticalAlign=middle;fontFamily=Helvetica;fontSize=11;fontColor=default;labelBackgroundColor=default;endArrow=classic;" edge="1" parent="1" source="wTCuduvqksmkqUVvXFoO-4" target="wTCuduvqksmkqUVvXFoO-6">
          <mxGeometry relative="1" as="geometry" />
        </mxCell>
        <mxCell id="wTCuduvqksmkqUVvXFoO-33" value="3" style="edgeLabel;html=1;align=center;verticalAlign=middle;resizable=0;points=[];fontFamily=Helvetica;fontSize=11;fontColor=default;labelBackgroundColor=default;" vertex="1" connectable="0" parent="wTCuduvqksmkqUVvXFoO-20">
          <mxGeometry x="-0.0487" y="-1" relative="1" as="geometry">
            <mxPoint y="1" as="offset" />
          </mxGeometry>
        </mxCell>
        <mxCell id="wTCuduvqksmkqUVvXFoO-4" value="" style="ellipse;whiteSpace=wrap;html=1;aspect=fixed;fillColor=#E6E6E6;fontColor=#333333;strokeColor=#666666;" vertex="1" parent="1">
          <mxGeometry x="61" y="196" width="23" height="23" as="geometry" />
        </mxCell>
        <mxCell id="wTCuduvqksmkqUVvXFoO-5" value="" style="ellipse;whiteSpace=wrap;html=1;aspect=fixed;fillColor=#E6E6E6;fontColor=#333333;strokeColor=#666666;" vertex="1" parent="1">
          <mxGeometry x="17" y="225" width="23" height="23" as="geometry" />
        </mxCell>
        <mxCell id="wTCuduvqksmkqUVvXFoO-6" value="" style="ellipse;whiteSpace=wrap;html=1;aspect=fixed;fillColor=#E6E6E6;fontColor=#333333;strokeColor=#666666;" vertex="1" parent="1">
          <mxGeometry x="24" y="160" width="23" height="23" as="geometry" />
        </mxCell>
        <mxCell id="wTCuduvqksmkqUVvXFoO-22" style="edgeStyle=none;shape=connector;rounded=0;orthogonalLoop=1;jettySize=auto;html=1;exitX=1;exitY=1;exitDx=0;exitDy=0;entryX=0;entryY=0;entryDx=0;entryDy=0;strokeColor=#FF6666;strokeWidth=2;align=center;verticalAlign=middle;fontFamily=Helvetica;fontSize=11;fontColor=default;labelBackgroundColor=default;endArrow=classic;" edge="1" parent="1" source="wTCuduvqksmkqUVvXFoO-7" target="wTCuduvqksmkqUVvXFoO-8">
          <mxGeometry relative="1" as="geometry" />
        </mxCell>
        <mxCell id="wTCuduvqksmkqUVvXFoO-34" value="3" style="edgeLabel;html=1;align=center;verticalAlign=middle;resizable=0;points=[];fontFamily=Helvetica;fontSize=11;fontColor=default;labelBackgroundColor=default;" vertex="1" connectable="0" parent="wTCuduvqksmkqUVvXFoO-22">
          <mxGeometry x="-0.1874" y="-2" relative="1" as="geometry">
            <mxPoint as="offset" />
          </mxGeometry>
        </mxCell>
        <mxCell id="wTCuduvqksmkqUVvXFoO-23" style="edgeStyle=none;shape=connector;rounded=0;orthogonalLoop=1;jettySize=auto;html=1;exitX=1;exitY=0;exitDx=0;exitDy=0;entryX=0;entryY=0.5;entryDx=0;entryDy=0;strokeColor=#FF6666;strokeWidth=2;align=center;verticalAlign=middle;fontFamily=Helvetica;fontSize=11;fontColor=default;labelBackgroundColor=default;endArrow=classic;" edge="1" parent="1" source="wTCuduvqksmkqUVvXFoO-7" target="wTCuduvqksmkqUVvXFoO-9">
          <mxGeometry relative="1" as="geometry" />
        </mxCell>
        <mxCell id="wTCuduvqksmkqUVvXFoO-35" value="3" style="edgeLabel;html=1;align=center;verticalAlign=middle;resizable=0;points=[];fontFamily=Helvetica;fontSize=11;fontColor=default;labelBackgroundColor=default;" vertex="1" connectable="0" parent="wTCuduvqksmkqUVvXFoO-23">
          <mxGeometry x="-0.0745" y="1" relative="1" as="geometry">
            <mxPoint x="-1" as="offset" />
          </mxGeometry>
        </mxCell>
        <mxCell id="wTCuduvqksmkqUVvXFoO-24" style="edgeStyle=none;shape=connector;rounded=0;orthogonalLoop=1;jettySize=auto;html=1;exitX=0.5;exitY=0;exitDx=0;exitDy=0;entryX=0.5;entryY=1;entryDx=0;entryDy=0;strokeColor=#FF6666;strokeWidth=2;align=center;verticalAlign=middle;fontFamily=Helvetica;fontSize=11;fontColor=default;labelBackgroundColor=default;endArrow=classic;" edge="1" parent="1" source="wTCuduvqksmkqUVvXFoO-7" target="wTCuduvqksmkqUVvXFoO-10">
          <mxGeometry relative="1" as="geometry" />
        </mxCell>
        <mxCell id="wTCuduvqksmkqUVvXFoO-36" value="3" style="edgeLabel;html=1;align=center;verticalAlign=middle;resizable=0;points=[];fontFamily=Helvetica;fontSize=11;fontColor=default;labelBackgroundColor=default;" vertex="1" connectable="0" parent="wTCuduvqksmkqUVvXFoO-24">
          <mxGeometry x="-0.11" y="3" relative="1" as="geometry">
            <mxPoint as="offset" />
          </mxGeometry>
        </mxCell>
        <mxCell id="wTCuduvqksmkqUVvXFoO-7" value="" style="ellipse;whiteSpace=wrap;html=1;aspect=fixed;fillColor=#E6E6E6;fontColor=#333333;strokeColor=#666666;" vertex="1" parent="1">
          <mxGeometry x="153" y="202" width="23" height="23" as="geometry" />
        </mxCell>
        <mxCell id="wTCuduvqksmkqUVvXFoO-8" value="" style="ellipse;whiteSpace=wrap;html=1;aspect=fixed;fillColor=#E6E6E6;fontColor=#333333;strokeColor=#666666;" vertex="1" parent="1">
          <mxGeometry x="186" y="248" width="23" height="23" as="geometry" />
        </mxCell>
        <mxCell id="wTCuduvqksmkqUVvXFoO-9" value="" style="ellipse;whiteSpace=wrap;html=1;aspect=fixed;fillColor=#E6E6E6;fontColor=#333333;strokeColor=#666666;" vertex="1" parent="1">
          <mxGeometry x="214" y="202" width="23" height="23" as="geometry" />
        </mxCell>
        <mxCell id="wTCuduvqksmkqUVvXFoO-25" style="edgeStyle=none;shape=connector;rounded=0;orthogonalLoop=1;jettySize=auto;html=1;exitX=1;exitY=0.5;exitDx=0;exitDy=0;entryX=0;entryY=0.5;entryDx=0;entryDy=0;strokeColor=#FF6666;strokeWidth=2;align=center;verticalAlign=middle;fontFamily=Helvetica;fontSize=11;fontColor=default;labelBackgroundColor=default;endArrow=classic;" edge="1" parent="1" source="wTCuduvqksmkqUVvXFoO-10" target="wTCuduvqksmkqUVvXFoO-11">
          <mxGeometry relative="1" as="geometry" />
        </mxCell>
        <mxCell id="wTCuduvqksmkqUVvXFoO-37" value="4" style="edgeLabel;html=1;align=center;verticalAlign=middle;resizable=0;points=[];fontFamily=Helvetica;fontSize=11;fontColor=default;labelBackgroundColor=default;" vertex="1" connectable="0" parent="wTCuduvqksmkqUVvXFoO-25">
          <mxGeometry x="-0.4126" y="-1" relative="1" as="geometry">
            <mxPoint as="offset" />
          </mxGeometry>
        </mxCell>
        <mxCell id="wTCuduvqksmkqUVvXFoO-26" style="edgeStyle=none;shape=connector;rounded=0;orthogonalLoop=1;jettySize=auto;html=1;exitX=0;exitY=0;exitDx=0;exitDy=0;entryX=0.5;entryY=1;entryDx=0;entryDy=0;strokeColor=#FF6666;strokeWidth=2;align=center;verticalAlign=middle;fontFamily=Helvetica;fontSize=11;fontColor=default;labelBackgroundColor=default;endArrow=classic;" edge="1" parent="1" source="wTCuduvqksmkqUVvXFoO-10" target="wTCuduvqksmkqUVvXFoO-12">
          <mxGeometry relative="1" as="geometry" />
        </mxCell>
        <mxCell id="wTCuduvqksmkqUVvXFoO-39" value="4" style="edgeLabel;html=1;align=center;verticalAlign=middle;resizable=0;points=[];fontFamily=Helvetica;fontSize=11;fontColor=default;labelBackgroundColor=default;" vertex="1" connectable="0" parent="wTCuduvqksmkqUVvXFoO-26">
          <mxGeometry x="0.1372" y="-2" relative="1" as="geometry">
            <mxPoint as="offset" />
          </mxGeometry>
        </mxCell>
        <mxCell id="wTCuduvqksmkqUVvXFoO-27" style="edgeStyle=none;shape=connector;rounded=0;orthogonalLoop=1;jettySize=auto;html=1;exitX=1;exitY=0;exitDx=0;exitDy=0;entryX=0;entryY=0.5;entryDx=0;entryDy=0;strokeColor=#FF6666;strokeWidth=2;align=center;verticalAlign=middle;fontFamily=Helvetica;fontSize=11;fontColor=default;labelBackgroundColor=default;endArrow=classic;" edge="1" parent="1" source="wTCuduvqksmkqUVvXFoO-10" target="wTCuduvqksmkqUVvXFoO-13">
          <mxGeometry relative="1" as="geometry" />
        </mxCell>
        <mxCell id="wTCuduvqksmkqUVvXFoO-38" value="4" style="edgeLabel;html=1;align=center;verticalAlign=middle;resizable=0;points=[];fontFamily=Helvetica;fontSize=11;fontColor=default;labelBackgroundColor=default;" vertex="1" connectable="0" parent="wTCuduvqksmkqUVvXFoO-27">
          <mxGeometry x="-0.0935" y="2" relative="1" as="geometry">
            <mxPoint as="offset" />
          </mxGeometry>
        </mxCell>
        <mxCell id="wTCuduvqksmkqUVvXFoO-10" value="" style="ellipse;whiteSpace=wrap;html=1;aspect=fixed;fillColor=#E6E6E6;fontColor=#333333;strokeColor=#666666;" vertex="1" parent="1">
          <mxGeometry x="158" y="127" width="23" height="23" as="geometry" />
        </mxCell>
        <mxCell id="wTCuduvqksmkqUVvXFoO-11" value="" style="ellipse;whiteSpace=wrap;html=1;aspect=fixed;fillColor=#E6E6E6;fontColor=#333333;strokeColor=#666666;" vertex="1" parent="1">
          <mxGeometry x="209" y="146" width="23" height="23" as="geometry" />
        </mxCell>
        <mxCell id="wTCuduvqksmkqUVvXFoO-12" value="" style="ellipse;whiteSpace=wrap;html=1;aspect=fixed;fillColor=#E6E6E6;fontColor=#333333;strokeColor=#666666;" vertex="1" parent="1">
          <mxGeometry x="142" y="77" width="23" height="23" as="geometry" />
        </mxCell>
        <mxCell id="wTCuduvqksmkqUVvXFoO-13" value="" style="ellipse;whiteSpace=wrap;html=1;aspect=fixed;fillColor=#000033;" vertex="1" parent="1">
          <mxGeometry x="209" y="104" width="23" height="23" as="geometry" />
        </mxCell>
        <mxCell id="wTCuduvqksmkqUVvXFoO-155" style="edgeStyle=none;shape=connector;rounded=0;orthogonalLoop=1;jettySize=auto;html=1;exitX=1;exitY=0;exitDx=0;exitDy=0;entryX=0;entryY=1;entryDx=0;entryDy=0;strokeColor=#FF6666;strokeWidth=2;align=center;verticalAlign=middle;fontFamily=Helvetica;fontSize=11;fontColor=default;labelBackgroundColor=default;endArrow=classic;" edge="1" parent="1" source="wTCuduvqksmkqUVvXFoO-120" target="wTCuduvqksmkqUVvXFoO-127">
          <mxGeometry relative="1" as="geometry" />
        </mxCell>
        <mxCell id="wTCuduvqksmkqUVvXFoO-165" value="1" style="edgeLabel;html=1;align=center;verticalAlign=middle;resizable=0;points=[];fontFamily=Helvetica;fontSize=11;fontColor=default;labelBackgroundColor=default;" vertex="1" connectable="0" parent="wTCuduvqksmkqUVvXFoO-155">
          <mxGeometry x="-0.1963" y="1" relative="1" as="geometry">
            <mxPoint as="offset" />
          </mxGeometry>
        </mxCell>
        <mxCell id="wTCuduvqksmkqUVvXFoO-120" value="" style="ellipse;whiteSpace=wrap;html=1;aspect=fixed;fillColor=#000033;" vertex="1" parent="1">
          <mxGeometry x="339" y="299" width="23" height="23" as="geometry" />
        </mxCell>
        <mxCell id="wTCuduvqksmkqUVvXFoO-156" style="edgeStyle=none;shape=connector;rounded=0;orthogonalLoop=1;jettySize=auto;html=1;exitX=0;exitY=0;exitDx=0;exitDy=0;entryX=0.5;entryY=1;entryDx=0;entryDy=0;strokeColor=#FF6666;strokeWidth=2;align=center;verticalAlign=middle;fontFamily=Helvetica;fontSize=11;fontColor=default;labelBackgroundColor=default;endArrow=classic;" edge="1" parent="1" source="wTCuduvqksmkqUVvXFoO-127" target="wTCuduvqksmkqUVvXFoO-133">
          <mxGeometry relative="1" as="geometry" />
        </mxCell>
        <mxCell id="wTCuduvqksmkqUVvXFoO-177" style="edgeStyle=none;shape=connector;rounded=0;orthogonalLoop=1;jettySize=auto;html=1;exitX=1;exitY=1;exitDx=0;exitDy=0;entryX=0;entryY=0;entryDx=0;entryDy=0;strokeColor=#000000;strokeWidth=2;align=center;verticalAlign=middle;fontFamily=Helvetica;fontSize=11;fontColor=default;labelBackgroundColor=default;startFill=0;endArrow=none;" edge="1" parent="1" source="wTCuduvqksmkqUVvXFoO-127" target="wTCuduvqksmkqUVvXFoO-128">
          <mxGeometry relative="1" as="geometry" />
        </mxCell>
        <mxCell id="wTCuduvqksmkqUVvXFoO-127" value="" style="ellipse;whiteSpace=wrap;html=1;aspect=fixed;fillColor=#E6E6E6;fontColor=#333333;strokeColor=#666666;" vertex="1" parent="1">
          <mxGeometry x="385" y="258" width="23" height="23" as="geometry" />
        </mxCell>
        <mxCell id="wTCuduvqksmkqUVvXFoO-128" value="" style="ellipse;whiteSpace=wrap;html=1;aspect=fixed;fillColor=#E6E6E6;fontColor=#333333;strokeColor=#666666;" vertex="1" parent="1">
          <mxGeometry x="417" y="301" width="23" height="23" as="geometry" />
        </mxCell>
        <mxCell id="wTCuduvqksmkqUVvXFoO-157" style="edgeStyle=none;shape=connector;rounded=0;orthogonalLoop=1;jettySize=auto;html=1;exitX=0.5;exitY=1;exitDx=0;exitDy=0;entryX=0.5;entryY=0;entryDx=0;entryDy=0;strokeColor=#FF6666;strokeWidth=2;align=center;verticalAlign=middle;fontFamily=Helvetica;fontSize=11;fontColor=default;labelBackgroundColor=default;endArrow=classic;" edge="1" parent="1" source="wTCuduvqksmkqUVvXFoO-133" target="wTCuduvqksmkqUVvXFoO-127">
          <mxGeometry relative="1" as="geometry" />
        </mxCell>
        <mxCell id="wTCuduvqksmkqUVvXFoO-166" value="2" style="edgeLabel;html=1;align=center;verticalAlign=middle;resizable=0;points=[];fontFamily=Helvetica;fontSize=11;fontColor=default;labelBackgroundColor=default;" vertex="1" connectable="0" parent="wTCuduvqksmkqUVvXFoO-157">
          <mxGeometry x="0.1837" y="-8" relative="1" as="geometry">
            <mxPoint as="offset" />
          </mxGeometry>
        </mxCell>
        <mxCell id="wTCuduvqksmkqUVvXFoO-167" value="3" style="edgeLabel;html=1;align=center;verticalAlign=middle;resizable=0;points=[];fontFamily=Helvetica;fontSize=11;fontColor=default;labelBackgroundColor=default;" vertex="1" connectable="0" parent="wTCuduvqksmkqUVvXFoO-157">
          <mxGeometry x="-0.0303" y="4" relative="1" as="geometry">
            <mxPoint as="offset" />
          </mxGeometry>
        </mxCell>
        <mxCell id="wTCuduvqksmkqUVvXFoO-175" style="edgeStyle=none;rounded=0;orthogonalLoop=1;jettySize=auto;html=1;exitX=0;exitY=0.5;exitDx=0;exitDy=0;entryX=1;entryY=0;entryDx=0;entryDy=0;strokeColor=#000000;strokeWidth=2;align=center;verticalAlign=middle;fontFamily=Helvetica;fontSize=11;fontColor=default;labelBackgroundColor=default;endArrow=none;startFill=0;" edge="1" parent="1" source="wTCuduvqksmkqUVvXFoO-133" target="wTCuduvqksmkqUVvXFoO-134">
          <mxGeometry relative="1" as="geometry" />
        </mxCell>
        <mxCell id="wTCuduvqksmkqUVvXFoO-176" style="edgeStyle=none;shape=connector;rounded=0;orthogonalLoop=1;jettySize=auto;html=1;exitX=0;exitY=0;exitDx=0;exitDy=0;entryX=1;entryY=1;entryDx=0;entryDy=0;strokeColor=#000000;strokeWidth=2;align=center;verticalAlign=middle;fontFamily=Helvetica;fontSize=11;fontColor=default;labelBackgroundColor=default;startFill=0;endArrow=none;" edge="1" parent="1" source="wTCuduvqksmkqUVvXFoO-133" target="wTCuduvqksmkqUVvXFoO-135">
          <mxGeometry relative="1" as="geometry" />
        </mxCell>
        <mxCell id="wTCuduvqksmkqUVvXFoO-133" value="" style="ellipse;whiteSpace=wrap;html=1;aspect=fixed;fillColor=#E6E6E6;fontColor=#333333;strokeColor=#666666;" vertex="1" parent="1">
          <mxGeometry x="372" y="194" width="23" height="23" as="geometry" />
        </mxCell>
        <mxCell id="wTCuduvqksmkqUVvXFoO-134" value="" style="ellipse;whiteSpace=wrap;html=1;aspect=fixed;fillColor=#E6E6E6;fontColor=#333333;strokeColor=#666666;" vertex="1" parent="1">
          <mxGeometry x="328" y="223" width="23" height="23" as="geometry" />
        </mxCell>
        <mxCell id="wTCuduvqksmkqUVvXFoO-135" value="" style="ellipse;whiteSpace=wrap;html=1;aspect=fixed;fillColor=#E6E6E6;fontColor=#333333;strokeColor=#666666;" vertex="1" parent="1">
          <mxGeometry x="335" y="158" width="23" height="23" as="geometry" />
        </mxCell>
        <mxCell id="wTCuduvqksmkqUVvXFoO-159" style="edgeStyle=none;shape=connector;rounded=0;orthogonalLoop=1;jettySize=auto;html=1;exitX=1;exitY=0.5;exitDx=0;exitDy=0;entryX=0;entryY=0.5;entryDx=0;entryDy=0;strokeColor=#FF6666;strokeWidth=2;align=center;verticalAlign=middle;fontFamily=Helvetica;fontSize=11;fontColor=default;labelBackgroundColor=default;endArrow=classic;" edge="1" parent="1" source="wTCuduvqksmkqUVvXFoO-142" target="wTCuduvqksmkqUVvXFoO-144">
          <mxGeometry relative="1" as="geometry" />
        </mxCell>
        <mxCell id="wTCuduvqksmkqUVvXFoO-169" value="5" style="edgeLabel;html=1;align=center;verticalAlign=middle;resizable=0;points=[];fontFamily=Helvetica;fontSize=11;fontColor=default;labelBackgroundColor=default;" vertex="1" connectable="0" parent="wTCuduvqksmkqUVvXFoO-159">
          <mxGeometry x="-0.322" y="-4" relative="1" as="geometry">
            <mxPoint as="offset" />
          </mxGeometry>
        </mxCell>
        <mxCell id="wTCuduvqksmkqUVvXFoO-161" style="edgeStyle=none;shape=connector;rounded=0;orthogonalLoop=1;jettySize=auto;html=1;exitX=0.5;exitY=0;exitDx=0;exitDy=0;entryX=0.5;entryY=1;entryDx=0;entryDy=0;strokeColor=#FF6666;strokeWidth=2;align=center;verticalAlign=middle;fontFamily=Helvetica;fontSize=11;fontColor=default;labelBackgroundColor=default;endArrow=classic;" edge="1" parent="1" source="wTCuduvqksmkqUVvXFoO-142" target="wTCuduvqksmkqUVvXFoO-151">
          <mxGeometry relative="1" as="geometry" />
        </mxCell>
        <mxCell id="wTCuduvqksmkqUVvXFoO-171" value="7" style="edgeLabel;html=1;align=center;verticalAlign=middle;resizable=0;points=[];fontFamily=Helvetica;fontSize=11;fontColor=default;labelBackgroundColor=default;" vertex="1" connectable="0" parent="wTCuduvqksmkqUVvXFoO-161">
          <mxGeometry x="-0.1297" y="-2" relative="1" as="geometry">
            <mxPoint as="offset" />
          </mxGeometry>
        </mxCell>
        <mxCell id="wTCuduvqksmkqUVvXFoO-178" style="edgeStyle=none;shape=connector;rounded=0;orthogonalLoop=1;jettySize=auto;html=1;exitX=0.5;exitY=1;exitDx=0;exitDy=0;entryX=0;entryY=0;entryDx=0;entryDy=0;strokeColor=#000000;strokeWidth=2;align=center;verticalAlign=middle;fontFamily=Helvetica;fontSize=11;fontColor=default;labelBackgroundColor=default;startFill=0;endArrow=none;" edge="1" parent="1" source="wTCuduvqksmkqUVvXFoO-142" target="wTCuduvqksmkqUVvXFoO-143">
          <mxGeometry relative="1" as="geometry" />
        </mxCell>
        <mxCell id="wTCuduvqksmkqUVvXFoO-142" value="" style="ellipse;whiteSpace=wrap;html=1;aspect=fixed;fillColor=#E6E6E6;fontColor=#333333;strokeColor=#666666;" vertex="1" parent="1">
          <mxGeometry x="464" y="200" width="23" height="23" as="geometry" />
        </mxCell>
        <mxCell id="wTCuduvqksmkqUVvXFoO-143" value="" style="ellipse;whiteSpace=wrap;html=1;aspect=fixed;fillColor=#E6E6E6;fontColor=#333333;strokeColor=#666666;" vertex="1" parent="1">
          <mxGeometry x="497" y="246" width="23" height="23" as="geometry" />
        </mxCell>
        <mxCell id="wTCuduvqksmkqUVvXFoO-160" style="edgeStyle=none;shape=connector;rounded=0;orthogonalLoop=1;jettySize=auto;html=1;exitX=0;exitY=0;exitDx=0;exitDy=0;entryX=1;entryY=0;entryDx=0;entryDy=0;strokeColor=#FF6666;strokeWidth=2;align=center;verticalAlign=middle;fontFamily=Helvetica;fontSize=11;fontColor=default;labelBackgroundColor=default;endArrow=classic;" edge="1" parent="1" source="wTCuduvqksmkqUVvXFoO-144" target="wTCuduvqksmkqUVvXFoO-142">
          <mxGeometry relative="1" as="geometry" />
        </mxCell>
        <mxCell id="wTCuduvqksmkqUVvXFoO-170" value="6" style="edgeLabel;html=1;align=center;verticalAlign=middle;resizable=0;points=[];fontFamily=Helvetica;fontSize=11;fontColor=default;labelBackgroundColor=default;" vertex="1" connectable="0" parent="wTCuduvqksmkqUVvXFoO-160">
          <mxGeometry x="-0.3524" y="-5" relative="1" as="geometry">
            <mxPoint as="offset" />
          </mxGeometry>
        </mxCell>
        <mxCell id="wTCuduvqksmkqUVvXFoO-144" value="" style="ellipse;whiteSpace=wrap;html=1;aspect=fixed;fillColor=#E6E6E6;fontColor=#333333;strokeColor=#666666;" vertex="1" parent="1">
          <mxGeometry x="525" y="200" width="23" height="23" as="geometry" />
        </mxCell>
        <mxCell id="wTCuduvqksmkqUVvXFoO-162" style="edgeStyle=none;shape=connector;rounded=0;orthogonalLoop=1;jettySize=auto;html=1;exitX=1;exitY=1;exitDx=0;exitDy=0;entryX=0;entryY=0.5;entryDx=0;entryDy=0;strokeColor=#FF6666;strokeWidth=2;align=center;verticalAlign=middle;fontFamily=Helvetica;fontSize=11;fontColor=default;labelBackgroundColor=default;endArrow=classic;" edge="1" parent="1" source="wTCuduvqksmkqUVvXFoO-151" target="wTCuduvqksmkqUVvXFoO-152">
          <mxGeometry relative="1" as="geometry" />
        </mxCell>
        <mxCell id="wTCuduvqksmkqUVvXFoO-172" value="8" style="edgeLabel;html=1;align=center;verticalAlign=middle;resizable=0;points=[];fontFamily=Helvetica;fontSize=11;fontColor=default;labelBackgroundColor=default;" vertex="1" connectable="0" parent="wTCuduvqksmkqUVvXFoO-162">
          <mxGeometry x="-0.5071" y="-5" relative="1" as="geometry">
            <mxPoint as="offset" />
          </mxGeometry>
        </mxCell>
        <mxCell id="wTCuduvqksmkqUVvXFoO-164" style="edgeStyle=none;shape=connector;rounded=0;orthogonalLoop=1;jettySize=auto;html=1;exitX=1;exitY=0;exitDx=0;exitDy=0;entryX=0;entryY=0.5;entryDx=0;entryDy=0;strokeColor=#FF6666;strokeWidth=2;align=center;verticalAlign=middle;fontFamily=Helvetica;fontSize=11;fontColor=default;labelBackgroundColor=default;endArrow=classic;" edge="1" parent="1" source="wTCuduvqksmkqUVvXFoO-151" target="wTCuduvqksmkqUVvXFoO-154">
          <mxGeometry relative="1" as="geometry" />
        </mxCell>
        <mxCell id="wTCuduvqksmkqUVvXFoO-174" value="10" style="edgeLabel;html=1;align=center;verticalAlign=middle;resizable=0;points=[];fontFamily=Helvetica;fontSize=11;fontColor=default;labelBackgroundColor=default;" vertex="1" connectable="0" parent="wTCuduvqksmkqUVvXFoO-164">
          <mxGeometry x="-0.088" y="-2" relative="1" as="geometry">
            <mxPoint as="offset" />
          </mxGeometry>
        </mxCell>
        <mxCell id="wTCuduvqksmkqUVvXFoO-179" style="edgeStyle=none;shape=connector;rounded=0;orthogonalLoop=1;jettySize=auto;html=1;exitX=0;exitY=0;exitDx=0;exitDy=0;entryX=0.5;entryY=1;entryDx=0;entryDy=0;strokeColor=#000000;strokeWidth=2;align=center;verticalAlign=middle;fontFamily=Helvetica;fontSize=11;fontColor=default;labelBackgroundColor=default;startFill=0;endArrow=none;" edge="1" parent="1" source="wTCuduvqksmkqUVvXFoO-151" target="wTCuduvqksmkqUVvXFoO-153">
          <mxGeometry relative="1" as="geometry" />
        </mxCell>
        <mxCell id="wTCuduvqksmkqUVvXFoO-151" value="" style="ellipse;whiteSpace=wrap;html=1;aspect=fixed;fillColor=#E6E6E6;fontColor=#333333;strokeColor=#666666;" vertex="1" parent="1">
          <mxGeometry x="469" y="125" width="23" height="23" as="geometry" />
        </mxCell>
        <mxCell id="wTCuduvqksmkqUVvXFoO-163" style="edgeStyle=none;shape=connector;rounded=0;orthogonalLoop=1;jettySize=auto;html=1;exitX=0;exitY=0;exitDx=0;exitDy=0;entryX=1;entryY=0.5;entryDx=0;entryDy=0;strokeColor=#FF6666;strokeWidth=2;align=center;verticalAlign=middle;fontFamily=Helvetica;fontSize=11;fontColor=default;labelBackgroundColor=default;endArrow=classic;" edge="1" parent="1" source="wTCuduvqksmkqUVvXFoO-152" target="wTCuduvqksmkqUVvXFoO-151">
          <mxGeometry relative="1" as="geometry" />
        </mxCell>
        <mxCell id="wTCuduvqksmkqUVvXFoO-173" value="9" style="edgeLabel;html=1;align=center;verticalAlign=middle;resizable=0;points=[];fontFamily=Helvetica;fontSize=11;fontColor=default;labelBackgroundColor=default;" vertex="1" connectable="0" parent="wTCuduvqksmkqUVvXFoO-163">
          <mxGeometry x="-0.1554" y="-2" relative="1" as="geometry">
            <mxPoint as="offset" />
          </mxGeometry>
        </mxCell>
        <mxCell id="wTCuduvqksmkqUVvXFoO-152" value="" style="ellipse;whiteSpace=wrap;html=1;aspect=fixed;fillColor=#E6E6E6;fontColor=#333333;strokeColor=#666666;" vertex="1" parent="1">
          <mxGeometry x="520" y="144" width="23" height="23" as="geometry" />
        </mxCell>
        <mxCell id="wTCuduvqksmkqUVvXFoO-153" value="" style="ellipse;whiteSpace=wrap;html=1;aspect=fixed;fillColor=#E6E6E6;fontColor=#333333;strokeColor=#666666;" vertex="1" parent="1">
          <mxGeometry x="453" y="75" width="23" height="23" as="geometry" />
        </mxCell>
        <mxCell id="wTCuduvqksmkqUVvXFoO-154" value="" style="ellipse;whiteSpace=wrap;html=1;aspect=fixed;fillColor=#000033;" vertex="1" parent="1">
          <mxGeometry x="520" y="102" width="23" height="23" as="geometry" />
        </mxCell>
        <mxCell id="wTCuduvqksmkqUVvXFoO-158" style="edgeStyle=none;shape=connector;rounded=0;orthogonalLoop=1;jettySize=auto;html=1;exitX=1;exitY=0;exitDx=0;exitDy=0;entryX=0.011;entryY=0.868;entryDx=0;entryDy=0;entryPerimeter=0;strokeColor=#FF6666;strokeWidth=2;align=center;verticalAlign=middle;fontFamily=Helvetica;fontSize=11;fontColor=default;labelBackgroundColor=default;endArrow=classic;" edge="1" parent="1" source="wTCuduvqksmkqUVvXFoO-127" target="wTCuduvqksmkqUVvXFoO-142">
          <mxGeometry relative="1" as="geometry" />
        </mxCell>
        <mxCell id="wTCuduvqksmkqUVvXFoO-168" value="4" style="edgeLabel;html=1;align=center;verticalAlign=middle;resizable=0;points=[];fontFamily=Helvetica;fontSize=11;fontColor=default;labelBackgroundColor=default;" vertex="1" connectable="0" parent="wTCuduvqksmkqUVvXFoO-158">
          <mxGeometry x="-0.3251" relative="1" as="geometry">
            <mxPoint x="1" as="offset" />
          </mxGeometry>
        </mxCell>
        <mxCell id="wTCuduvqksmkqUVvXFoO-180" value="Source" style="text;html=1;align=center;verticalAlign=middle;resizable=0;points=[];autosize=1;strokeColor=none;fillColor=none;fontFamily=Helvetica;fontSize=11;fontColor=default;labelBackgroundColor=default;" vertex="1" parent="1">
          <mxGeometry x="-1" y="319" width="53" height="25" as="geometry" />
        </mxCell>
        <mxCell id="wTCuduvqksmkqUVvXFoO-181" value="Source" style="text;html=1;align=center;verticalAlign=middle;resizable=0;points=[];autosize=1;strokeColor=none;fillColor=none;fontFamily=Helvetica;fontSize=11;fontColor=default;labelBackgroundColor=default;" vertex="1" parent="1">
          <mxGeometry x="309" y="319" width="53" height="25" as="geometry" />
        </mxCell>
        <mxCell id="wTCuduvqksmkqUVvXFoO-182" value="destination" style="text;html=1;align=center;verticalAlign=middle;resizable=0;points=[];autosize=1;strokeColor=none;fillColor=none;fontFamily=Helvetica;fontSize=11;fontColor=default;labelBackgroundColor=default;" vertex="1" parent="1">
          <mxGeometry x="209" y="79" width="71" height="25" as="geometry" />
        </mxCell>
        <mxCell id="wTCuduvqksmkqUVvXFoO-183" value="destination" style="text;html=1;align=center;verticalAlign=middle;resizable=0;points=[];autosize=1;strokeColor=none;fillColor=none;fontFamily=Helvetica;fontSize=11;fontColor=default;labelBackgroundColor=default;" vertex="1" parent="1">
          <mxGeometry x="540" y="79" width="71" height="25" as="geometry" />
        </mxCell>
        <mxCell id="wTCuduvqksmkqUVvXFoO-184" value="（a）layer-wise direct neighbor aggregation" style="text;html=1;align=center;verticalAlign=middle;resizable=0;points=[];autosize=1;strokeColor=none;fillColor=none;fontFamily=Helvetica;fontSize=11;fontColor=default;labelBackgroundColor=default;" vertex="1" parent="1">
          <mxGeometry x="9" y="344" width="233" height="25" as="geometry" />
        </mxCell>
        <mxCell id="wTCuduvqksmkqUVvXFoO-185" value="（b）MERW" style="text;html=1;align=center;verticalAlign=middle;resizable=0;points=[];autosize=1;strokeColor=none;fillColor=none;fontFamily=Helvetica;fontSize=11;fontColor=default;labelBackgroundColor=default;" vertex="1" parent="1">
          <mxGeometry x="376" y="344" width="81" height="25" as="geometry" />
        </mxCell>
      </root>
    </mxGraphModel>
  </diagram>
</mxfile>
